# xmcd CD database file
#
# Track frame offsets:
#	150
#	20669
#	48568
#	64538
#	79652
#	91419
#	102042
#	113325
#	155734
#	192181
#	218948
#	230374
#	245703
#	259700
#	289856
#
# Disc length: 4272 seconds
#
# Revision: 0
# Processed by: cddbd v1.5.1PL0 Copyright (c) Steve Scherf et al.
# Submitted via: CDex 1.51
#
DISCID=ca10ae0f
DTITLE=Jimmy Smith - And Friends
DYEAR=1900
DGENRE=Jazz
TTITLE0=Lucky Thompson/ Soul Lullaby
TTITLE1=Cal Tjader/ Vinyl
TTITLE2=Bud Powell/ The Greatest Concert Ever
TTITLE3=Sreamin Jay Hawkins/ Please Try to Understand
TTITLE4=Sreamin Jay Hawkins/ You're All of My Life to me
TTITLE5=Sreamin Jay Hawkins/ Hong Kong
TTITLE6=Sreamin Jay Hawkins/ I Put a Spell on you
TTITLE7=John Coltrane/ Lush Life
TTITLE8=Jimmy Smith/ Back at the Chicen Shack
TTITLE9=Jimmy Smith/ Baby its cold outside
TTITLE10=Jimmy Smith/ When Johnny comes Marching in
TTITLE11=Lucky Thompson/ I Do
TTITLE12=Unknown
TTITLE13=Jimmy Smith/ Funky Broadway
TTITLE14=Jimmy Smith/ Nighttrain
EXTD=
EXTT0=
EXTT1=
EXTT2=
EXTT3=
EXTT4=
EXTT5=
EXTT6=
EXTT7=
EXTT8=
EXTT9=
EXTT10=
EXTT11=
EXTT12=
EXTT13=
EXTT14=
PLAYORDER=
